<?xml version="1.0" standalone="no"?>
<!DOCTYPE svg PUBLIC "-//W3C//DTD SVG 20010904//EN"
 "http://www.w3.org/TR/2001/REC-SVG-20010904/DTD/svg10.dtd">
<svg version="1.0" xmlns="http://www.w3.org/2000/svg"
 width="768.000000pt" height="768.000000pt" viewBox="0 0 768.000000 768.000000"
 preserveAspectRatio="xMidYMid meet">
<metadata>
Created by potrace 1.14, written by Peter Selinger 2001-2017
</metadata>
<g transform="translate(0.000000,768.000000) scale(0.100000,-0.100000)"
fill="#000000" stroke="none">
<path d="M0 3840 l0 -3840 3840 0 3840 0 0 3840 0 3840 -3840 0 -3840 0 0
-3840z m117 3784 c-8 -8 -48 -13 -43 -6 2 4 14 8 26 9 12 1 20 0 17 -3z m3768
-631 c33 -29 260 -199 412 -310 l86 -63 586 -1 c322 0 606 -4 631 -8 31 -6
-13 -9 -139 -10 -177 -1 -231 -6 -126 -12 28 -2 52 -5 55 -8 3 -3 14 -11 25
-17 11 -6 20 -16 20 -22 0 -6 4 -14 9 -19 5 -5 6 -3 2 5 -4 6 -3 12 3 12 6 0
7 7 4 17 -4 11 -3 14 6 9 7 -5 10 -15 7 -23 -4 -11 -2 -13 9 -9 21 8 19 -4 -7
-32 -13 -13 -18 -23 -13 -22 23 5 36 -1 29 -12 -4 -8 -3 -10 2 -5 12 12 12 30
-1 39 -6 5 -5 8 3 8 8 0 16 -9 19 -20 8 -28 32 -7 27 23 -2 12 -1 15 2 7 4 -8
11 -20 15 -26 6 -7 -1 -22 -17 -40 -15 -16 -23 -23 -20 -16 10 18 -4 38 -15
21 -7 -11 -12 -11 -27 -2 -15 9 -19 8 -19 -3 0 -8 4 -14 8 -14 4 0 6 -8 4 -18
-3 -15 2 -18 20 -14 15 2 31 -3 41 -12 9 -10 23 -15 30 -12 8 3 13 2 13 -2 -3
-21 4 -29 39 -42 20 -8 40 -13 44 -12 3 1 9 -5 12 -13 4 -12 -2 -11 -32 4
-108 55 -104 55 -711 59 l-564 3 -186 143 c-102 79 -217 169 -256 199 -40 33
-73 53 -80 48 -5 -4 -102 -77 -215 -161 -113 -84 -225 -170 -250 -191 l-46
-37 -547 -6 c-599 -6 -610 -7 -731 -68 -274 -138 -463 -389 -532 -704 -15 -70
-17 -153 -18 -712 l-2 -633 -34 -27 c-19 -15 -96 -86 -170 -158 -74 -73 -156
-149 -182 -170 -26 -22 -47 -42 -47 -46 -1 -11 279 -276 356 -336 l73 -57 0
-567 c0 -372 -3 -568 -10 -568 -19 0 -50 -39 -44 -57 5 -15 4 -15 -4 -3 -6 8
-8 18 -6 22 3 4 -4 8 -15 8 -18 0 -20 3 -9 19 7 11 16 17 20 15 4 -3 8 0 8 5
0 6 -6 11 -12 11 -10 0 -9 3 1 9 8 5 10 14 5 22 -6 12 -5 12 8 1 13 -10 16 -9
21 8 4 15 2 19 -6 12 -7 -5 -20 -8 -29 -7 -10 2 -17 0 -17 -3 4 -26 -4 -43
-23 -53 -22 -11 -22 -11 -7 7 9 10 15 27 14 36 -2 9 6 24 16 34 10 9 19 22 19
28 0 6 -7 0 -16 -12 -18 -27 -40 -28 -68 -4 -21 17 -21 17 -4 -4 23 -27 23
-40 0 -23 -14 11 -15 11 -5 -1 10 -11 9 -19 -10 -39 -18 -21 -19 -23 -2 -11
11 8 24 21 28 27 11 18 24 16 31 -4 4 -10 4 -14 0 -10 -12 12 -32 -13 -27 -33
3 -12 -4 -28 -20 -44 l-25 -25 -6 32 c-7 43 -6 157 2 156 22 -3 42 2 42 11 0
7 -6 7 -19 1 -26 -14 -31 -6 -33 58 0 31 -5 -20 -9 -114 -11 -220 9 -342 85
-517 27 -64 7 -42 -24 25 -31 70 -75 210 -85 275 -7 41 -7 42 -47 42 l-40 0 6
-52 c16 -130 16 -136 6 -103 -5 17 -13 63 -16 103 l-7 72 34 0 c19 0 40 4 46
8 10 6 13 130 13 534 l1 526 -58 53 c-106 97 -273 263 -364 361 -65 70 -88
101 -82 112 4 8 120 130 256 271 l248 257 -2 716 -1 717 27 3 c22 3 31 14 52
60 71 161 137 264 238 366 125 128 258 217 401 270 86 32 89 34 92 67 2 19 8
39 14 46 7 9 154 12 619 13 441 0 616 3 632 11 11 7 131 95 266 195 134 101
249 184 254 184 5 0 24 -12 42 -27z m205 -450 c402 -306 500 -389 500 -425 0
-9 4 -19 8 -22 5 -3 113 -6 240 -7 128 -1 235 -5 237 -10 3 -4 13 -5 21 -2 9
3 20 0 25 -8 5 -8 9 -9 9 -3 0 7 7 15 16 18 8 3 12 2 9 -4 -3 -6 1 -10 10 -10
10 0 13 -5 9 -12 -6 -10 -4 -10 7 -2 18 14 92 17 84 4 -6 -9 10 -14 42 -13 6
0 9 -6 6 -13 -3 -8 -9 -14 -15 -14 -5 0 -6 -4 -3 -10 4 -7 -118 -10 -359 -10
-363 0 -366 0 -366 -21 0 -11 -3 -18 -7 -16 -5 2 -16 -4 -25 -15 -10 -10 -14
-18 -9 -18 6 0 13 5 16 10 3 6 11 10 18 10 13 0 -19 -23 -46 -33 -16 -6 -17 1
-15 76 1 48 -4 91 -10 104 -7 12 -112 97 -235 189 -246 185 -335 256 -386 302
-37 36 -33 36 -116 -28 -78 -62 -362 -271 -445 -328 -36 -25 -72 -52 -80 -60
-21 -21 197 128 290 199 41 31 111 80 155 109 44 30 96 66 116 82 20 15 41 28
47 28 5 0 25 -14 43 -31 18 -17 94 -76 169 -132 303 -225 338 -252 332 -261
-3 -5 -1 -6 5 -3 6 4 25 -12 43 -35 l34 -41 -40 22 c-22 12 -82 53 -134 91
-52 38 -135 97 -185 131 -49 34 -132 93 -182 131 l-93 70 -37 -29 c-65 -51
-516 -360 -551 -377 -18 -9 -37 -14 -42 -11 -16 10 -11 -11 5 -25 10 -9 33
-11 68 -7 58 6 342 90 478 141 l88 33 98 -34 c251 -88 323 -111 393 -128 91
-21 104 -30 88 -55 -7 -10 -16 -17 -20 -14 -4 3 -5 -1 -2 -9 3 -8 1 -18 -4
-21 -17 -10 -377 92 -493 140 -31 13 -61 24 -67 24 -5 0 -39 -13 -75 -29 -84
-38 -356 -126 -432 -140 -115 -22 -105 -14 -105 -81 0 -35 4 -60 11 -60 17 0
310 120 394 163 95 47 187 104 198 123 5 9 19 4 58 -21 130 -88 614 -294 636
-271 4 3 1 6 -5 6 -7 0 -12 7 -12 16 0 14 3 14 18 3 14 -11 15 -11 5 1 -7 8
-13 20 -13 28 0 17 44 12 46 -5 1 -7 2 -24 3 -37 1 -18 12 -30 46 -46 42 -20
45 -25 43 -55 -1 -26 -7 -35 -25 -40 -57 -14 -450 129 -656 238 l-118 63 -162
-81 c-89 -45 -206 -99 -259 -120 -54 -21 -96 -40 -94 -42 7 -7 256 97 378 158
65 33 126 59 137 59 11 0 79 -31 153 -68 150 -77 295 -136 478 -194 69 -22
132 -47 141 -54 8 -8 21 -14 27 -14 7 0 12 -5 12 -11 0 -5 5 -7 10 -4 6 3 13
-1 16 -9 3 -9 9 -14 13 -12 3 2 15 0 26 -4 17 -6 15 -8 -13 -12 -17 -2 -32 -1
-32 4 0 5 -4 6 -10 3 -22 -13 -327 83 -534 169 -61 25 -112 44 -113 42 -5 -5
193 -88 337 -141 135 -51 340 -109 495 -141 61 -12 103 -23 94 -23 -13 -1 -16
-9 -13 -36 2 -25 -2 -38 -11 -42 -8 -3 -15 -9 -15 -15 0 -5 6 -6 13 -2 10 6
10 4 0 -7 -19 -20 -16 -29 11 -29 14 0 27 -4 30 -8 9 -15 -6 -52 -18 -45 -6 3
-8 3 -4 -2 4 -4 2 -15 -5 -24 -11 -14 -10 -14 6 -2 14 11 17 11 17 0 0 -11 2
-11 10 1 6 10 10 11 10 3 0 -7 8 -14 18 -15 9 -1 -19 -5 -63 -8 -62 -5 -46 -7
72 -6 90 1 149 -3 145 -8 -3 -5 3 -6 14 -2 10 4 15 4 11 0 -4 -4 1 -13 11 -20
25 -18 28 -126 22 -1069 l-5 -830 -7 715 c-4 393 -8 733 -9 755 -9 292 -13
387 -17 372 -2 -10 -9 -14 -15 -11 -8 5 -8 2 1 -7 6 -7 12 -32 12 -56 0 -34
-3 -41 -16 -36 -12 4 -14 0 -9 -23 6 -28 6 -28 -10 -9 -16 19 -16 19 -10 -10
5 -24 4 -27 -5 -15 -9 12 -11 10 -6 -11 4 -17 1 -31 -9 -39 -8 -7 -15 -9 -15
-4 0 4 -11 -3 -25 -16 -13 -12 -22 -26 -20 -30 3 -4 -3 -14 -13 -21 -15 -12
-16 -12 -4 2 10 14 10 18 -3 22 -8 4 -14 1 -12 -6 1 -7 -4 -11 -12 -9 -12 3
-13 -43 -7 -300 4 -166 5 -300 2 -297 -9 9 -21 246 -21 421 0 153 -1 158 -20
152 -14 -5 -11 1 10 17 17 13 33 27 36 32 4 5 11 7 17 3 5 -3 16 2 23 12 13
15 12 16 -3 3 -10 -7 -18 -9 -18 -3 0 10 49 46 64 47 8 0 24 29 25 48 1 4 -32
-17 -71 -46 -105 -76 -128 -89 -144 -83 -9 3 -13 10 -9 16 8 12 -53 50 -80 49
-16 0 -14 -3 8 -11 15 -5 27 -14 27 -19 0 -5 3 -8 8 -8 20 3 32 -2 26 -12 -5
-8 -9 -8 -14 1 -4 6 -9 11 -11 10 -2 -1 -17 4 -33 10 -25 9 -36 7 -77 -15 -27
-14 -54 -25 -61 -25 -7 0 5 9 27 20 22 11 31 17 20 14 -11 -4 -30 -9 -42 -11
-29 -7 -39 -33 -12 -33 19 0 19 -1 5 -16 -21 -21 -20 -27 4 -21 17 4 18 2 9
-15 -7 -13 -7 -18 -1 -14 6 3 13 2 17 -4 3 -5 19 -8 35 -6 16 2 27 0 25 -5 -3
-4 -1 -10 5 -14 5 -3 10 -11 10 -18 0 -6 -7 -2 -16 9 -14 18 -15 18 -4 -3 6
-13 15 -23 20 -23 6 0 10 -7 10 -15 0 -8 -5 -15 -11 -15 -5 0 -7 6 -3 13 4 6
5 10 1 7 -3 -3 -6 -9 -7 -15 -1 -5 -7 -16 -13 -24 -10 -12 -9 -13 3 -6 12 7
13 6 3 -7 -7 -8 -9 -19 -5 -23 4 -5 1 -4 -7 0 -11 6 -13 4 -8 -9 4 -9 3 -14
-2 -11 -5 3 -13 0 -16 -6 -4 -5 -13 -8 -20 -5 -7 2 -15 -5 -19 -17 -5 -22 -5
-22 -21 -2 -8 11 -14 16 -13 10 3 -10 -4 -15 -23 -15 -5 0 -7 5 -3 12 4 7 3 8
-4 4 -6 -4 -21 -2 -32 4 -15 8 -25 8 -34 1 -7 -6 -15 -9 -18 -6 -2 3 -22 -10
-43 -28 -37 -32 -38 -34 -23 -58 9 -13 21 -48 27 -77 11 -54 14 -169 4 -142
-14 34 -39 46 -34 16 1 -5 -5 -4 -13 4 -13 10 -16 10 -17 -1 -1 -8 -5 0 -9 16
-7 27 -8 26 -9 -16 -4 -147 -85 -227 -268 -265 -46 -10 -83 -20 -83 -24 0 -3
22 -14 49 -24 93 -33 192 -119 234 -201 15 -29 14 -31 -6 -33 -77 -6 -111 -2
-161 21 -38 17 -58 22 -62 15 -5 -7 -2 -8 7 -3 12 8 12 6 0 -8 -18 -22 -20
-22 -16 8 2 19 -1 23 -10 15 -10 -8 -15 -8 -21 1 -4 8 -3 9 4 5 18 -11 14 10
-5 25 -14 12 -16 12 -9 -1 4 -8 -22 16 -57 54 l-64 69 -8 -49 c-4 -27 -9 -64
-11 -83 -1 -18 -7 -38 -13 -44 -7 -7 -11 -88 -11 -234 l0 -222 38 -8 c195 -39
429 65 687 308 l90 84 73 -72 74 -72 -32 -16 c-17 -9 -79 -59 -137 -112 -108
-97 -168 -140 -261 -187 -74 -37 -190 -78 -202 -71 -6 3 -10 1 -10 -6 0 -6 -8
-9 -20 -6 -11 3 -20 2 -20 -3 0 -14 -133 -29 -235 -25 -119 4 -258 38 -368 88
-48 22 -74 30 -70 21 3 -8 9 -12 13 -9 4 3 13 -2 20 -10 7 -8 16 -12 21 -9 5
3 6 -2 3 -10 -7 -17 -45 -12 -80 11 -23 15 -24 17 -8 34 10 11 15 19 13 20 -2
0 -12 2 -22 4 -14 3 -16 0 -7 -10 8 -10 8 -15 0 -20 -14 -9 -146 88 -142 104
1 7 -1 10 -6 7 -11 -6 -80 65 -115 118 -15 22 -35 40 -45 41 -16 1 -19 -5 -17
-38 2 -21 8 -44 14 -50 7 -7 7 -16 0 -30 -8 -14 -8 -18 0 -13 6 4 11 4 12 -1
2 -28 9 -47 23 -62 9 -10 13 -21 9 -24 -3 -4 -1 -7 6 -7 6 0 11 -6 10 -12 -5
-37 3 -70 21 -88 11 -11 20 -27 20 -35 0 -9 6 -12 17 -8 12 5 15 2 10 -10 -9
-24 21 -17 69 14 62 41 95 54 54 22 -53 -42 -120 -111 -120 -124 0 -8 5 -8 15
1 13 11 14 10 9 -3 -3 -10 4 -26 20 -42 15 -15 23 -31 20 -37 -4 -7 -2 -8 4
-4 11 7 17 -6 13 -27 -1 -5 2 -6 7 -3 4 3 21 -8 36 -25 15 -16 31 -27 36 -24
5 3 10 -1 13 -7 3 -10 8 -10 21 2 10 8 24 15 31 16 8 1 30 14 49 29 62 47 39
21 -29 -33 -62 -50 -83 -63 -70 -43 3 5 1 12 -4 15 -16 11 -22 -11 -6 -24 17
-14 12 -25 -15 -40 -16 -9 -18 -7 -15 10 2 12 0 18 -6 15 -5 -4 -7 -10 -4 -15
3 -5 1 -11 -5 -15 -15 -9 -12 -32 5 -32 12 0 12 3 2 15 -10 13 -9 14 11 3 22
-12 23 -13 5 -26 -17 -13 -17 -14 2 -34 10 -12 25 -19 33 -16 10 4 13 0 9 -15
-3 -11 -2 -18 2 -16 12 8 27 -8 39 -41 8 -25 8 -33 -1 -33 -8 0 -7 -4 3 -9 8
-6 17 -8 20 -6 3 2 6 -6 5 -18 0 -12 5 -22 10 -22 6 0 9 4 7 8 -1 5 2 6 7 2
12 -7 3 -35 -10 -35 -5 0 -17 4 -27 9 -9 5 -82 35 -162 67 -80 31 -167 69
-195 83 -43 22 -68 27 -180 32 -153 8 -207 16 -216 30 -5 8 -9 8 -13 0 -11
-17 -43 4 -72 49 -21 32 -31 39 -51 36 -13 -3 -21 -1 -18 5 4 5 12 6 18 2 8
-5 8 -2 0 9 -7 8 -10 17 -7 20 3 3 0 9 -7 14 -7 4 -10 3 -7 -2 3 -5 0 -15 -7
-21 -11 -10 -14 -8 -13 10 1 12 5 27 10 34 6 7 4 14 -3 19 -8 4 -9 3 -5 -4 4
-7 3 -12 -3 -12 -14 0 -29 32 -24 48 3 6 0 12 -5 12 -15 0 -21 37 -8 50 8 9 7
11 -4 8 -11 -2 -14 4 -12 24 2 18 -4 31 -18 41 -14 10 -17 16 -9 19 9 3 8 6
-4 11 -15 6 -17 -4 -16 -111 1 -64 4 -126 7 -137 10 -30 38 -66 53 -69 23 -3
40 -17 34 -27 -10 -15 7 -10 29 9 21 17 21 17 3 -5 -19 -22 -8 -41 15 -27 6 4
8 3 5 -3 -5 -9 389 -233 703 -399 80 -42 210 -113 290 -159 231 -131 202 -122
268 -84 64 36 199 110 372 204 109 59 627 342 643 352 4 2 7 2 7 0 0 -5 -266
-156 -730 -414 -211 -118 -336 -183 -351 -183 -8 0 -86 41 -174 91 -88 50
-234 131 -325 179 -149 79 -401 216 -552 300 -32 17 -63 28 -69 24 -8 -4 -9
-3 -5 4 10 17 -86 63 -105 50 -11 -7 -11 -11 -1 -15 6 -2 12 -9 12 -15 0 -6
-7 -4 -17 3 -9 8 -19 12 -22 11 -3 -2 -14 -8 -24 -13 -10 -6 -15 -15 -11 -22
4 -7 3 -8 -1 -4 -14 12 -15 38 -2 31 8 -5 8 -3 0 6 -10 11 -15 11 -28 0 -14
-11 -19 -7 -16 12 0 4 -10 19 -23 33 -14 15 -22 33 -19 44 3 10 -2 32 -11 49
-8 16 -12 32 -9 35 3 4 0 13 -7 22 -8 9 -8 15 -2 15 12 0 27 -38 24 -60 -3
-13 -2 -13 9 0 9 13 10 12 5 -2 -3 -11 2 -22 14 -28 11 -6 20 -8 20 -5 0 3 0
7 0 10 0 3 -2 4 -5 3 -12 -6 -37 60 -36 96 1 34 -1 37 -11 24 -18 -23 -60 -34
-52 -14 3 8 12 12 20 9 10 -4 12 0 8 11 -3 9 -10 14 -15 11 -12 -8 -49 17 -49
33 0 8 -6 12 -13 9 -9 -3 -13 17 -15 78 -2 45 -6 95 -8 111 -3 16 -7 215 -9
443 -2 227 -7 416 -10 420 -4 3 -6 -28 -5 -69 1 -41 1 -305 1 -585 l-1 -511
-32 -54 c-18 -29 -54 -71 -79 -92 -42 -35 -48 -38 -72 -27 -40 18 -43 44 -10
83 15 19 46 56 68 82 l40 47 1 196 c1 108 0 298 -4 423 l-5 226 -111 4 c-61 2
-112 3 -113 3 -3 0 -12 -363 -13 -508 0 -82 -4 -146 -8 -143 -5 3 -9 -1 -9 -8
0 -11 107 49 235 132 22 14 22 14 22 -31 0 -44 0 -45 -77 -97 -42 -30 -82 -53
-90 -53 -7 0 -13 -3 -13 -7 0 -10 -33 -9 -47 2 -7 5 -18 6 -24 2 -9 -5 -10 -2
-6 12 6 14 2 13 -14 -6 -11 -14 -18 -19 -14 -12 10 19 -6 14 -34 -10 l-26 -23
26 30 c18 22 24 38 21 60 -2 17 -6 467 -8 1000 -3 534 -8 1040 -13 1125 -5 99
-8 -223 -9 -885 -1 -572 -4 -1051 -7 -1065 -4 -14 -7 -31 -7 -37 -1 -9 -5 -10
-15 -2 -7 6 -13 8 -13 4 0 -4 -9 3 -19 16 l-19 24 -8 -30 c-17 -69 56 -308 88
-289 7 4 4 -3 -7 -15 -11 -13 -37 -32 -57 -42 l-37 -19 20 -37 c26 -51 72
-157 94 -218 10 -27 21 -54 25 -60 10 -15 20 -45 15 -45 -2 0 -13 18 -23 40
-10 22 -22 37 -27 33 -4 -5 -5 -2 -1 5 4 6 0 19 -9 28 -9 9 -14 23 -11 30 3 8
2 14 -2 14 -4 0 -20 30 -36 68 -52 122 -60 137 -73 145 -22 13 -15 23 27 40
45 18 46 19 24 119 -14 63 -16 144 -14 572 1 412 -1 497 -12 491 -10 -6 -11
-5 0 6 9 10 12 87 12 316 l0 303 -76 0 c-67 0 -75 2 -64 15 7 8 27 16 44 16
28 2 27 2 -9 8 -31 5 -40 10 -40 26 0 18 7 20 73 20 l72 0 0 366 0 366 23 10
c12 6 81 64 152 128 72 65 172 156 224 202 l94 85 -2 74 c-2 47 2 74 8 74 7 0
11 -24 11 -60 l0 -60 338 0 c185 0 354 3 374 6 29 5 39 13 46 34 16 45 71 89
387 310 105 73 228 163 275 199 46 36 93 69 105 72 23 7 47 -9 255 -168z
m1405 -113 c3 -5 -1 -10 -10 -10 -9 0 -13 5 -10 10 3 6 8 10 10 10 2 0 7 -4
10 -10z m61 -9 c0 -11 -4 -17 -8 -15 -4 3 -8 12 -8 20 0 8 4 14 8 14 4 0 8 -9
8 -19z m-139 -313 c-2 -24 -4 -7 -4 37 0 44 2 63 4 43 2 -21 2 -57 0 -80z
m515 2 c144 -136 244 -303 285 -480 16 -68 18 -139 18 -740 0 -433 -3 -667
-10 -670 -7 -3 -12 229 -16 680 -5 569 -9 696 -22 752 -43 185 -162 370 -337
522 -30 26 -46 43 -34 38 11 -6 64 -52 116 -102z m-3652 15 c0 -43 -1 -45 -30
-45 -16 0 -30 5 -30 10 0 21 31 71 40 65 6 -4 10 -1 10 4 0 6 2 11 5 11 3 0 5
-20 5 -45z m-73 -62 c-2 -16 -4 -5 -4 22 0 28 2 40 4 28 2 -13 2 -35 0 -50z
m2258 -1 c-3 -3 -11 0 -18 7 -9 10 -8 11 6 5 10 -3 15 -9 12 -12z m950 -152
c10 -11 16 -20 13 -20 -3 0 -13 9 -23 20 -10 11 -16 20 -13 20 3 0 13 -9 23
-20z m-922 -30 c-3 -12 -8 -19 -11 -16 -5 6 5 36 12 36 2 0 2 -9 -1 -20z m190
-187 c-7 -2 -19 -2 -25 0 -7 3 -2 5 12 5 14 0 19 -2 13 -5z m1133 -499 c1
-203 -1 -425 -6 -494 -5 -86 -7 27 -9 361 -1 345 -4 488 -12 496 -9 9 -7 11 7
9 18 -3 19 -19 20 -372z m-515 229 c13 -16 12 -17 -3 -4 -10 7 -18 15 -18 17
0 8 8 3 21 -13z m-244 -129 c-3 -3 -12 -4 -19 -1 -8 3 -5 6 6 6 11 1 17 -2 13
-5z m310 -46 c-2 -13 -4 -5 -4 17 -1 22 1 32 4 23 2 -10 2 -28 0 -40z m30
-140 c-2 -35 -3 -7 -3 62 0 69 1 97 3 63 2 -35 2 -91 0 -125z m-577 -337 c0
-6 -4 -13 -10 -16 -5 -3 -10 1 -10 9 0 9 5 16 10 16 6 0 10 -4 10 -9z m-260
-251 c0 -5 -2 -10 -4 -10 -3 0 -8 5 -11 10 -3 6 -1 10 4 10 6 0 11 -4 11 -10z
m1252 -348 c2 -67 0 -122 -4 -122 -5 0 -7 82 -6 183 2 184 6 163 10 -61z
m-897 104 c-16 -14 -43 -32 -60 -41 -30 -16 -30 -16 -5 2 13 10 36 28 50 40
14 12 30 22 35 23 6 0 -3 -11 -20 -24z m85 -53 c0 -24 -3 -33 -9 -25 -6 10
-23 3 -72 -31 -269 -183 -268 -183 -210 -131 30 27 61 53 70 58 73 41 211 140
211 152 0 8 2 14 5 14 3 0 5 -17 5 -37z m-3230 -38 c0 -2 -10 -9 -22 -15 -22
-11 -22 -10 -4 4 21 17 26 19 26 11z m-290 -18 c0 -7 -12 -23 -27 -34 -28 -20
-129 -111 -254 -227 l-66 -62 106 13 c58 6 139 12 179 13 l74 0 -44 43 c-24
23 -34 33 -21 23 13 -11 23 -16 23 -11 0 14 -32 45 -47 45 -8 0 -11 5 -7 11 7
12 67 -41 92 -83 l16 -28 138 0 138 0 0 -29 0 -28 -277 4 c-296 4 -386 9 -381
23 7 19 187 207 260 271 78 69 98 80 98 56z m3288 -25 c4 -24 -29 -42 -76 -42
-15 0 -39 -8 -52 -17 -24 -16 -24 -16 3 17 28 34 92 72 112 66 6 -1 11 -12 13
-24z m-3053 8 c-3 -5 -12 -10 -18 -10 -7 0 -6 4 3 10 19 12 23 12 15 0z m2895
-84 c0 -2 -8 -10 -17 -17 -16 -13 -17 -12 -4 4 13 16 21 21 21 13z m1994 -248
c-102 -113 -172 -186 -266 -282 l-108 -110 0 -575 c0 -653 -1 -658 -74 -806
-119 -242 -295 -417 -495 -494 -112 -43 -175 -51 -380 -49 l-186 1 195 7 c107
4 215 11 240 15 73 12 277 116 352 180 132 110 266 324 308 490 19 75 20 113
20 659 l0 579 174 176 c96 97 189 193 206 214 18 21 35 35 38 32 3 -3 -8 -20
-24 -37z m-2431 9 c-4 -6 0 -8 9 -4 17 6 19 -16 3 -30 -4 -4 -5 -3 -2 3 4 6
-5 16 -19 23 -26 11 -25 35 1 25 8 -4 12 -11 8 -17z m1634 -169 c-2 -13 -4 -5
-4 17 -1 22 1 32 4 23 2 -10 2 -28 0 -40z m-4291 -10 l29 -33 -32 29 c-18 17
-33 31 -33 33 0 8 8 1 36 -29z m2303 -558 c31 0 62 -4 70 -9 12 -8 15 -41 15
-163 l1 -153 -70 -6 c-38 -3 -78 -9 -87 -13 -17 -8 -18 5 -17 190 0 184 1 197
16 177 13 -19 25 -23 72 -23z m-1894 -73 c0 -12 5 -21 12 -20 7 2 10 -3 7 -11
-3 -8 3 -23 14 -34 14 -14 17 -24 10 -36 -6 -10 -5 -16 2 -16 5 0 10 -5 10
-11 0 -8 -4 -8 -13 -1 -8 7 -18 6 -31 -4 -10 -7 -24 -10 -30 -7 -16 10 -46 11
-40 1 3 -4 3 -8 0 -8 -3 0 -13 14 -22 31 -11 23 -12 29 -2 23 7 -4 5 2 -4 13
-20 22 -24 43 -8 43 19 0 25 3 37 19 7 9 13 11 13 5 0 -14 -24 -36 -34 -29 -3
3 1 -3 9 -12 14 -16 17 -16 43 11 15 16 21 25 13 21 -11 -6 -13 -4 -8 9 4 10
7 25 7 33 0 9 3 13 7 9 4 -4 8 -17 8 -29z m3789 -123 c-40 -109 -139 -324
-148 -324 -4 0 9 30 28 68 18 37 56 128 84 202 68 181 65 175 69 163 2 -6 -13
-55 -33 -109z m-3824 81 c-7 -8 -17 -15 -23 -15 -6 0 -2 7 9 15 25 19 30 19
14 0z m3257 -105 c-20 -28 -137 -111 -137 -97 0 3 22 19 50 36 27 17 60 42 72
56 26 30 35 33 15 5z m-3250 -5 c0 -8 -4 -12 -9 -9 -5 3 -6 10 -3 15 9 13 12
11 12 -6z m1633 5 c0 -5 -5 -10 -11 -10 -5 0 -7 5 -4 10 3 6 8 10 11 10 2 0 4
-4 4 -10z m-1717 -45 c4 -8 2 -17 -3 -20 -6 -4 -10 3 -10 14 0 25 6 27 13 6z
m-20 -157 c-7 -134 -15 -142 -11 -12 l3 101 -60 -44 c-33 -25 -48 -34 -34 -21
44 40 93 78 100 78 4 0 5 -46 2 -102z m3207 97 c0 -2 -13 -11 -30 -20 -38 -19
-40 -11 -2 9 31 17 32 18 32 11z m-1460 -56 c0 -6 -4 -7 -10 -4 -5 3 -10 11
-10 16 0 6 5 7 10 4 6 -3 10 -11 10 -16z m-1802 -86 c-10 -2 -26 -2 -35 0 -10
3 -2 5 17 5 19 0 27 -2 18 -5z m1872 -45 c0 -4 -4 -8 -9 -8 -6 0 -12 4 -15 8
-3 5 1 9 9 9 8 0 15 -4 15 -9z m1279 -111 c-39 -30 -1023 -577 -1037 -577 -6
0 -39 16 -74 36 -34 21 -112 65 -173 99 -60 34 -155 88 -210 119 -54 32 -138
79 -185 104 -47 25 -150 81 -229 124 -79 43 -144 78 -146 78 -1 0 -3 -34 -3
-75 -1 -41 -3 -79 -6 -83 -8 -13 6 -27 51 -52 24 -13 41 -25 39 -27 -1 -2 -24
8 -50 23 l-46 26 -208 -42 c-114 -23 -241 -50 -284 -61 -88 -22 -88 -22 -88
-10 0 4 37 19 83 31 94 26 110 39 93 75 -6 14 -15 25 -19 25 -5 0 -5 4 -2 10
11 18 -43 22 -96 7 -99 -27 -104 -27 -46 1 32 15 56 30 53 33 -3 3 3 5 14 6
10 1 56 13 101 28 46 14 156 43 245 65 l162 39 158 -86 c205 -111 636 -352
739 -414 88 -52 129 -66 148 -51 6 5 93 53 192 107 291 158 408 222 620 341
109 62 201 111 204 109 2 -3 2 -6 0 -8z m-3092 -284 c-1 -49 -3 -9 -3 87 0 96
2 136 3 88 2 -49 2 -127 0 -175z m3643 193 c0 -2 -8 -10 -17 -17 -16 -13 -17
-12 -4 4 13 16 21 21 21 13z m-3954 -80 c1 -14 -5 -27 -14 -31 -12 -4 -12 -3
-3 9 9 11 9 15 -1 19 -10 4 -10 8 2 16 8 6 15 11 15 11 0 0 1 -11 1 -24z
m-119 -1 c-8 -19 13 -31 25 -14 7 11 8 10 6 -5 -3 -20 -34 -31 -44 -15 -6 10
4 49 13 49 3 0 3 -7 0 -15z m3530 -1 c0 -8 -14 -22 -30 -31 l-30 -15 22 31
c25 34 38 39 38 15z m-3567 -48 c0 -3 -4 -8 -10 -11 -5 -3 -10 -1 -10 4 0 6 5
11 10 11 6 0 10 -2 10 -4z m160 -1 c0 -2 -9 -9 -20 -15 -16 -9 -18 -8 -14 5 5
13 34 22 34 10z m4939 -79 c-6 -26 -13 -45 -16 -43 -2 3 1 26 8 51 6 26 13 45
16 43 2 -3 -1 -26 -8 -51z m-3459 18 c0 -2 -9 0 -20 6 -11 6 -20 13 -20 16 0
2 9 0 20 -6 11 -6 20 -13 20 -16z m-1510 -9 c-7 -8 -16 -12 -21 -9 -13 8 -1
24 18 24 13 0 13 -3 3 -15z m23 -28 c3 -8 -1 -14 -8 -14 -7 0 -11 6 -8 14 3 7
6 13 8 13 2 0 5 -6 8 -13z m1597 -23 c0 -2 -9 0 -20 6 -11 6 -20 13 -20 16 0
2 9 0 20 -6 11 -6 20 -13 20 -16z m3320 -59 c-16 -47 -23 -40 -8 8 6 20 13 35
16 33 2 -3 -1 -21 -8 -41z m-4631 11 c-8 -7 -27 -16 -44 -20 -29 -6 -28 -5 10
18 40 26 61 27 34 2z m1516 -64 c-3 -3 -11 0 -18 7 -9 10 -8 11 6 5 10 -3 15
-9 12 -12z m55 -28 c0 -2 -9 0 -20 6 -11 6 -20 13 -20 16 0 2 9 0 20 -6 11 -6
20 -13 20 -16z m35 -14 c3 -6 -1 -7 -9 -4 -18 7 -21 14 -7 14 6 0 13 -4 16
-10z m2956 -69 c-17 -34 -33 -61 -36 -61 -3 0 10 29 27 65 18 35 34 63 36 61
2 -2 -11 -31 -27 -65z m-2881 23 c0 -2 -9 0 -20 6 -11 6 -20 13 -20 16 0 2 9
0 20 -6 11 -6 20 -13 20 -16z m165 -89 c11 -9 -2 -4 -30 11 -27 15 -54 32 -60
37 -16 15 68 -29 90 -48z m2665 -25 c-6 -11 -13 -20 -16 -20 -2 0 0 9 6 20 6
11 13 20 16 20 2 0 0 -9 -6 -20z m-40 -60 c-12 -16 -24 -30 -26 -30 -3 0 4 14
16 30 12 17 24 30 26 30 3 0 -4 -13 -16 -30z m-4789 -17 c13 -16 12 -17 -3 -4
-17 13 -22 21 -14 21 2 0 10 -8 17 -17z m74 -93 c10 -11 16 -20 13 -20 -3 0
-13 9 -23 20 -10 11 -16 20 -13 20 3 0 13 -9 23 -20z m513 -71 c141 -44 219
-49 712 -49 286 0 461 -4 470 -10 10 -7 -165 -9 -530 -7 -541 2 -545 3 -615
26 -74 25 -165 67 -165 77 0 3 8 3 18 -1 9 -4 59 -20 110 -36z m1613 -76 c13
-16 12 -17 -3 -4 -17 13 -22 21 -14 21 2 0 10 -8 17 -17z m-206 -153 c10 -11
16 -20 13 -20 -3 0 -13 9 -23 20 -10 11 -16 20 -13 20 3 0 13 -9 23 -20z m96
-77 c13 -16 12 -17 -3 -4 -17 13 -22 21 -14 21 2 0 10 -8 17 -17z m529 -57 c0
-3 -15 -14 -32 -26 l-33 -22 30 26 c31 27 35 29 35 22z m-70 -50 c0 -3 -15
-14 -32 -26 l-33 -22 30 26 c31 27 35 29 35 22z m215 -21 c-38 -31 -310 -226
-350 -250 -59 -37 -7 4 130 102 77 55 162 116 188 136 54 41 79 51 32 12z
m2054 -509 c10 -12 6 -14 -21 -13 -29 2 -33 -1 -33 -23 0 -22 4 -25 35 -23 33
1 34 0 16 -13 -11 -8 -23 -14 -28 -14 -11 0 -48 38 -48 50 0 15 38 50 54 50 7
0 19 -6 25 -14z m75 -2 c11 -10 13 -21 7 -32 -4 -9 -6 -24 -3 -32 4 -11 -1
-10 -17 4 -19 17 -21 17 -21 3 0 -10 -4 -17 -10 -17 -11 0 -14 73 -3 83 11 12
31 8 47 -9z m71 6 c3 -5 -3 -10 -14 -10 -28 0 -27 -17 2 -23 l22 -4 -22 -8
c-13 -4 -23 -11 -23 -15 0 -5 10 -11 23 -13 20 -4 19 -4 -4 -6 -24 -1 -27 3
-31 40 -2 22 -2 42 1 45 8 8 40 4 46 -6z m71 -25 c20 -48 19 -50 -21 -50 -19
0 -35 3 -35 6 0 12 30 79 36 79 3 0 12 -16 20 -35z m140 24 c3 -5 -4 -9 -15
-9 -12 0 -21 -4 -21 -10 0 -5 7 -10 15 -10 8 0 15 -4 15 -10 0 -5 -7 -10 -15
-10 -23 0 -18 -18 8 -23 16 -3 13 -5 -10 -6 -31 -1 -33 1 -33 34 0 24 -5 35
-15 35 -10 0 -15 -11 -15 -35 0 -19 -5 -35 -11 -35 -7 0 -10 14 -7 35 3 24 0
35 -9 35 -7 0 -13 4 -13 9 0 12 119 11 126 0z m72 -5 c40 -28 22 -74 -30 -74
-27 0 -28 2 -28 45 0 50 16 58 58 29z m144 -34 c4 0 8 9 8 19 0 11 5 23 10 26
13 8 13 -14 -1 -54 -13 -38 -24 -39 -37 -3 l-10 27 -7 -27 c-10 -40 -29 -34
-42 12 -5 22 -6 40 -2 40 5 0 12 -12 16 -27 l6 -28 15 35 15 35 11 -27 c5 -16
13 -28 18 -28z m128 40 c0 -5 -4 -10 -10 -10 -5 0 -10 -16 -10 -35 0 -19 -4
-35 -10 -35 -5 0 -10 16 -10 35 0 19 -4 35 -10 35 -5 0 -10 5 -10 10 0 6 14
10 30 10 17 0 30 -4 30 -10z m26 -16 c-3 -9 2 -14 14 -14 11 0 20 7 20 15 0 8
5 15 10 15 6 0 10 -18 10 -40 0 -22 -4 -40 -10 -40 -5 0 -10 7 -10 15 0 9 -9
15 -21 15 -15 0 -19 -5 -15 -15 3 -8 1 -15 -4 -15 -6 0 -10 21 -10 46 0 29 4
43 11 39 6 -4 8 -13 5 -21z m-985 -1 c28 -33 89 -138 89 -153 0 -8 -6 -4 -13
10 -7 14 -31 51 -52 83 l-38 57 -56 0 c-40 0 -52 3 -41 10 25 16 96 12 111 -7z
m889 -23 c0 -22 -4 -40 -10 -40 -5 0 -10 18 -10 40 0 22 5 40 10 40 6 0 10
-18 10 -40z m-670 -215 c0 -108 -1 -115 -20 -115 -19 0 -20 7 -20 115 0 108 1
115 20 115 19 0 20 -7 20 -115z m121 59 l32 -56 35 57 c27 44 39 55 56 53 11
-2 20 -6 19 -10 -2 -5 -3 -55 -3 -113 0 -98 -1 -105 -20 -105 -18 0 -20 7 -20
73 l0 72 -30 -47 c-17 -27 -32 -48 -35 -48 -3 0 -19 23 -36 50 -17 28 -32 50
-33 50 -2 0 -1 -34 2 -75 l5 -75 -27 0 -26 0 0 115 0 115 25 0 c20 0 31 -11
56 -56z m306 24 c6 -18 24 -70 41 -115 l31 -83 -23 0 c-15 0 -27 9 -34 25 -10
21 -19 25 -52 25 -33 0 -42 -4 -52 -25 -10 -22 -48 -36 -48 -19 0 4 17 56 38
115 34 101 39 109 63 109 20 0 28 -7 36 -32z m252 17 c16 -8 31 -21 34 -29 8
-21 -21 -28 -46 -11 -77 54 -170 -45 -107 -113 27 -29 90 -30 115 -2 18 20 17
20 -18 20 -30 0 -37 4 -37 20 0 18 7 20 55 20 54 0 55 -1 55 -29 0 -94 -139
-128 -204 -50 -40 47 -37 110 8 155 28 28 42 34 75 34 23 0 55 -7 70 -15z
m121 -100 c0 -108 -1 -115 -20 -115 -19 0 -20 7 -20 115 0 108 1 115 20 115
19 0 20 -7 20 -115z m126 44 l49 -72 3 72 c3 63 5 71 22 71 19 0 20 -8 20
-115 0 -103 -2 -115 -17 -115 -11 0 -36 28 -63 70 -25 38 -47 70 -50 70 -3 0
-4 -31 -2 -70 4 -70 4 -70 -22 -70 l-26 0 0 115 c0 105 2 115 18 115 12 0 37
-27 68 -71z m274 51 c0 -17 -7 -20 -51 -20 -49 0 -50 -1 -47 -27 3 -26 6 -28
46 -25 38 3 42 1 42 -20 0 -20 -5 -23 -42 -23 -39 0 -43 -2 -46 -27 -3 -27 -2
-28 47 -28 44 0 51 -3 51 -20 0 -18 -7 -20 -70 -20 l-70 0 0 115 0 115 70 0
c63 0 70 -2 70 -20z m-1663 -147 l28 -24 -31 15 c-35 17 -45 34 -43 74 1 24 2
24 9 -7 4 -18 21 -45 37 -58z m329 30 c-3 -10 -19 -27 -36 -36 -25 -15 -29
-15 -24 -3 3 8 14 18 24 21 11 3 22 15 25 26 4 11 9 18 12 16 3 -3 2 -14 -1
-24z m-186 -96 c8 0 26 3 40 7 24 8 24 8 5 -8 -26 -20 -65 -20 -90 1 -19 15
-19 15 5 8 14 -4 32 -7 40 -8z"/>
<path d="M4590 6492 c0 -5 7 -13 16 -16 10 -4 14 -1 12 6 -5 15 -28 23 -28 10z"/>
<path d="M4530 6480 c0 -6 4 -10 9 -10 5 0 16 -3 25 -6 10 -4 16 -1 16 8 0 7
-11 15 -25 16 -14 1 -25 -3 -25 -8z"/>
<path d="M5529 6473 c-13 -16 -12 -17 4 -4 9 7 17 15 17 17 0 8 -8 3 -21 -13z"/>
<path d="M1652 6103 c3 -20 18 -34 29 -27 4 2 5 13 2 24 -7 25 -35 27 -31 3z"/>
<path d="M1282 2610 c0 -14 2 -19 5 -12 2 6 2 18 0 25 -3 6 -5 1 -5 -13z"/>
<path d="M1399 2593 c-12 -16 -12 -17 2 -6 9 7 20 9 24 5 5 -4 5 -1 1 6 -9 16
-11 15 -27 -5z"/>
<path d="M1330 2593 c5 -2 8 -9 4 -14 -3 -5 0 -9 6 -9 15 0 7 23 -8 26 -7 1
-8 0 -2 -3z"/>
<path d="M1410 2520 c-8 -15 -8 -20 3 -20 7 0 13 9 13 20 0 11 -1 20 -3 20 -1
0 -7 -9 -13 -20z"/>
<path d="M1440 2345 c0 -8 4 -15 10 -15 5 0 7 7 4 15 -4 8 -8 15 -10 15 -2 0
-4 -7 -4 -15z"/>
<path d="M3136 6094 c-3 -8 1 -26 10 -40 20 -30 22 -30 16 1 -2 14 -8 25 -13
25 -5 0 -6 7 -3 15 4 8 4 15 1 15 -3 0 -8 -7 -11 -16z"/>
<path d="M5247 6019 c7 -7 15 -10 18 -7 3 3 -2 9 -12 12 -14 6 -15 5 -6 -5z"/>
<path d="M2349 5973 c-13 -16 -12 -17 4 -4 9 7 17 15 17 17 0 8 -8 3 -21 -13z"/>
<path d="M2400 5983 c0 -5 161 -8 357 -8 356 0 358 0 361 -21 3 -20 -3 -21
-97 -28 -130 -9 -621 4 -621 16 0 11 -105 -79 -265 -227 -55 -51 -113 -103
-129 -116 l-28 -25 0 -159 1 -160 54 -51 c30 -28 84 -71 121 -97 l66 -46 0
104 c0 57 -5 116 -11 132 -14 37 -49 74 -63 67 -15 -8 77 80 144 138 49 42 53
49 37 58 -9 6 -29 22 -45 36 -23 21 -20 20 23 -6 l50 -31 60 67 61 67 118 13
c143 17 341 56 459 91 l88 26 -2 76 c-2 42 -8 79 -13 83 -14 10 -726 10 -726
1z"/>
<path d="M2284 5924 l-39 -35 43 32 c38 30 48 39 39 39 -2 0 -21 -16 -43 -36z"/>
<path d="M3824 5909 c-4 -7 -1 -10 7 -7 8 3 49 -12 91 -33 43 -22 81 -39 85
-38 9 0 -158 88 -169 88 -4 1 -10 -4 -14 -10z"/>
<path d="M3778 5884 c-38 -20 -36 -28 2 -9 17 9 30 18 30 20 0 7 -1 6 -32 -11z"/>
<path d="M3670 5830 c-30 -16 -50 -29 -45 -29 6 0 35 13 65 29 30 16 51 29 45
29 -5 0 -35 -13 -65 -29z"/>
<path d="M2065 5733 c-49 -47 -67 -68 -40 -45 49 39 144 132 135 132 -3 -1
-45 -40 -95 -87z"/>
<path d="M3590 5790 c-9 -6 -10 -10 -3 -10 6 0 15 5 18 10 8 12 4 12 -15 0z"/>
<path d="M3255 5749 c-27 -10 -37 -17 -21 -14 31 7 97 33 81 33 -5 0 -32 -8
-60 -19z"/>
<path d="M3155 5720 c-13 -5 -14 -9 -5 -9 8 0 24 4 35 9 13 5 14 9 5 9 -8 0
-24 -4 -35 -9z"/>
<path d="M3020 5680 c-20 -6 -21 -8 -5 -8 11 0 29 3 40 8 25 11 -1 11 -35 0z"/>
<path d="M2968 5663 c7 -3 16 -2 19 1 4 3 -2 6 -13 5 -11 0 -14 -3 -6 -6z"/>
<path d="M2918 5653 c6 -2 18 -2 25 0 6 3 1 5 -13 5 -14 0 -19 -2 -12 -5z"/>
<path d="M2868 5643 c6 -2 18 -2 25 0 6 3 1 5 -13 5 -14 0 -19 -2 -12 -5z"/>
<path d="M2813 5633 c9 -2 23 -2 30 0 6 3 -1 5 -18 5 -16 0 -22 -2 -12 -5z"/>
<path d="M2758 5623 c6 -2 18 -2 25 0 6 3 1 5 -13 5 -14 0 -19 -2 -12 -5z"/>
<path d="M2698 5613 c6 -2 18 -2 25 0 6 3 1 5 -13 5 -14 0 -19 -2 -12 -5z"/>
<path d="M2638 5603 c6 -2 18 -2 25 0 6 3 1 5 -13 5 -14 0 -19 -2 -12 -5z"/>
<path d="M2558 5593 c6 -2 18 -2 25 0 6 3 1 5 -13 5 -14 0 -19 -2 -12 -5z"/>
<path d="M1902 5560 c0 -19 2 -27 5 -17 2 9 2 25 0 35 -3 9 -5 1 -5 -18z"/>
<path d="M2470 5545 c-24 -25 -42 -45 -39 -45 3 0 25 20 49 45 24 25 42 45 39
45 -3 0 -25 -20 -49 -45z"/>
<path d="M2938 5573 c7 -3 16 -2 19 1 4 3 -2 6 -13 5 -11 0 -14 -3 -6 -6z"/>
<path d="M2399 5473 c-13 -16 -12 -17 4 -4 9 7 17 15 17 17 0 8 -8 3 -21 -13z"/>
<path d="M3785 5394 c-22 -20 -34 -33 -26 -28 10 5 12 3 7 -5 -5 -7 -10 -10
-13 -7 -9 9 -44 -14 -38 -25 4 -5 2 -8 -3 -7 -6 2 -59 -33 -119 -76 -183 -135
-333 -248 -333 -253 0 -5 26 13 133 95 43 32 83 59 90 59 7 0 60 34 120 76 59
43 107 74 107 69 0 -4 4 -2 8 4 4 6 26 23 50 38 23 14 42 29 42 32 0 3 -6 2
-12 -2 -10 -5 -10 -3 0 7 11 12 14 12 22 -1 7 -11 10 -5 10 23 0 20 -1 37 -2
37 -2 -1 -21 -17 -43 -36z m-185 -158 c0 -2 -8 -10 -17 -17 -16 -13 -17 -12
-4 4 13 16 21 21 21 13z"/>
<path d="M3860 5392 c0 -22 7 -53 15 -68 9 -18 15 -22 15 -13 0 13 8 17 33 15
22 -1 31 3 29 12 -1 8 2 11 8 7 6 -3 8 -10 5 -15 -3 -5 -1 -11 5 -15 15 -9 54
-15 46 -7 -4 4 -11 7 -14 7 -4 1 -25 18 -47 39 -22 21 -52 47 -67 58 l-28 19
0 -39z"/>
<path d="M2409 5383 c-13 -16 -12 -17 4 -4 9 7 17 15 17 17 0 8 -8 3 -21 -13z"/>
<path d="M2349 5323 l-34 -38 38 34 c20 19 37 36 37 38 0 8 -8 0 -41 -34z"/>
<path d="M4450 5306 c0 -2 7 -7 16 -10 8 -3 12 -2 9 4 -6 10 -25 14 -25 6z"/>
<path d="M4557 5266 c75 -25 150 -31 495 -39 112 -2 117 -1 100 15 -15 16 -48
18 -302 21 -157 2 -296 6 -310 10 -14 4 -6 0 17 -7z"/>
<path d="M5086 5198 c-3 -7 -4 -21 -3 -30 0 -13 4 -15 18 -7 25 13 29 11 23
-8 -5 -15 -4 -16 5 -3 9 12 11 13 11 1 0 -8 3 -11 6 -8 12 12 -18 38 -37 32
-14 -5 -17 -2 -14 14 4 23 -3 29 -9 9z"/>
<path d="M5030 5179 c0 -5 5 -7 10 -4 6 3 10 8 10 11 0 2 -4 4 -10 4 -5 0 -10
-5 -10 -11z"/>
<path d="M4986 5161 c-4 -5 -2 -12 3 -15 5 -4 12 -2 15 3 4 5 2 12 -3 15 -5 4
-12 2 -15 -3z"/>
<path d="M5025 5141 c-3 -5 -2 -12 3 -15 5 -3 9 1 9 9 0 17 -3 19 -12 6z"/>
<path d="M5093 5125 c0 -8 4 -12 9 -9 5 3 6 10 3 15 -9 13 -12 11 -12 -6z"/>
<path d="M1988 4924 c-2 -114 -2 -238 0 -275 l4 -69 114 0 114 0 0 190 0 189
-87 62 c-49 34 -100 72 -114 86 l-27 25 -4 -208z"/>
<path d="M3970 5043 c0 -32 -3 -94 -6 -139 l-7 -81 54 -6 c50 -5 85 -16 208
-62 36 -13 46 -14 53 -3 5 9 -2 22 -22 40 -16 15 -30 32 -30 36 0 5 -9 17 -20
27 -10 9 -18 22 -17 28 4 22 -34 17 -70 -9 l-38 -26 32 28 c20 19 29 34 25 45
-18 42 -69 109 -95 124 -16 10 -38 26 -48 36 -19 19 -19 18 -19 -38z"/>
<path d="M4515 5050 c27 -12 43 -12 25 0 -8 5 -22 9 -30 9 -10 0 -8 -3 5 -9z"/>
<path d="M4590 5014 c0 -12 7 -14 30 -9 42 9 55 -2 36 -31 -9 -13 -16 -27 -16
-31 0 -4 9 5 19 20 10 16 21 28 25 27 4 -1 12 0 19 3 6 2 -5 9 -25 16 -21 7
-47 9 -59 6 -15 -5 -19 -4 -15 4 4 6 2 11 -3 11 -6 0 -11 -7 -11 -16z"/>
<path d="M5096 4993 c-6 -14 -5 -15 5 -6 7 7 10 15 7 18 -3 3 -9 -2 -12 -12z"/>
<path d="M5060 4985 c-7 -9 -8 -15 -2 -15 5 0 12 7 16 15 3 8 4 15 2 15 -2 0
-9 -7 -16 -15z"/>
<path d="M3229 4973 c-13 -16 -12 -17 4 -4 16 13 21 21 13 21 -2 0 -10 -8 -17
-17z"/>
<path d="M4720 4821 c-8 -6 -18 -7 -24 -4 -5 3 -6 1 -2 -5 5 -9 13 -9 27 -2
10 6 19 13 19 15 0 7 -3 6 -20 -4z"/>
<path d="M3911 4631 c1 -48 4 -65 8 -47 l6 30 15 -30 c11 -22 15 -80 18 -257
l3 -229 27 6 c15 4 65 25 112 49 103 51 121 77 128 181 6 94 -15 166 -70 240
-45 61 -120 106 -205 125 l-43 9 1 -77z"/>
<path d="M3651 4663 c-63 -26 -64 -27 -43 -44 21 -17 21 -17 -46 -85 -120
-123 -184 -290 -185 -484 0 -131 19 -215 78 -337 60 -124 158 -219 253 -248
l22 -6 0 185 c0 102 -3 186 -6 186 -3 0 -20 -9 -37 -21 l-32 -21 33 29 33 28
4 370 c3 304 6 378 19 415 9 25 16 48 16 53 0 14 -46 6 -109 -20z m69 -567 c0
-2 -19 -15 -42 -30 l-43 -27 35 31 c30 27 50 37 50 26z m-90 -60 c0 -2 -8 -10
-17 -17 -16 -13 -17 -12 -4 4 13 16 21 21 21 13z m20 -250 c0 -2 -8 -10 -17
-17 -16 -13 -17 -12 -4 4 13 16 21 21 21 13z"/>
<path d="M4511 4666 c-7 -9 -26 -12 -57 -10 -42 4 -44 3 -34 -15 15 -30 32
-36 45 -18 7 9 14 15 17 12 2 -3 15 6 28 20 13 14 21 25 18 25 -3 0 -11 -6
-17 -14z"/>
<path d="M2713 4535 c0 -33 2 -45 4 -27 2 18 2 45 0 60 -2 15 -4 0 -4 -33z"/>
<path d="M1953 4515 c-18 -13 -12 -19 30 -29 30 -7 32 -33 2 -28 -27 5 -45 -6
-39 -23 3 -8 15 -15 25 -15 18 0 19 -11 19 -255 l0 -255 115 0 115 0 0 300 0
300 -77 1 c-43 0 -99 4 -126 8 -32 5 -53 4 -64 -4z m257 -91 c0 -24 -3 -26
-31 -20 -17 3 -65 6 -106 6 -55 0 -74 3 -71 13 6 16 48 24 136 26 71 1 72 1
72 -25z"/>
<path d="M2583 4140 c-53 -30 -73 -46 -73 -61 0 -11 3 -18 8 -16 68 36 131 81
135 97 3 11 4 20 4 20 -1 0 -35 -18 -74 -40z"/>
<path d="M2450 4126 c0 -27 -7 -41 -35 -64 l-36 -29 39 1 39 1 2 62 c1 35 0
63 -3 63 -4 0 -6 -15 -6 -34z"/>
<path d="M3420 3690 c12 -16 24 -30 26 -30 3 0 -4 14 -16 30 -12 17 -24 30
-26 30 -3 0 4 -13 16 -30z"/>
<path d="M2700 3299 c0 -200 3 -374 6 -386 12 -44 19 -23 18 50 -3 224 -17
693 -20 696 -2 2 -4 -160 -4 -360z"/>
<path d="M3119 3578 c-8 -27 -5 -36 9 -30 10 4 12 7 4 10 -7 2 -10 8 -6 13 3
5 3 9 0 9 -3 0 -6 -1 -7 -2z"/>
<path d="M4483 3403 c4 -3 1 -13 -6 -22 -11 -14 -10 -14 5 -2 16 12 16 31 1
31 -4 0 -3 -3 0 -7z"/>
<path d="M3406 3392 c-3 -5 1 -15 8 -21 11 -10 14 -9 12 3 -3 21 -13 29 -20
18z"/>
<path d="M4190 3280 c-9 -6 -10 -10 -3 -10 6 0 15 5 18 10 8 12 4 12 -15 0z"/>
<path d="M3489 2943 c-13 -16 -12 -17 4 -4 16 13 21 21 13 21 -2 0 -10 -8 -17
-17z"/>
<path d="M2547 2843 c-12 -11 -8 -18 23 -37 17 -9 28 -22 24 -27 -3 -6 3 -5
14 2 19 12 19 14 4 25 -9 6 -23 9 -31 6 -8 -3 -12 -1 -8 5 8 12 -17 36 -26 26z"/>
<path d="M3375 2841 c-3 -5 -2 -12 3 -15 5 -3 9 1 9 9 0 17 -3 19 -12 6z"/>
<path d="M1455 3910 c3 -5 8 -10 11 -10 2 0 4 5 4 10 0 6 -5 10 -11 10 -5 0
-7 -4 -4 -10z"/>
<path d="M1921 2907 c-8 -10 -7 -14 4 -14 8 0 12 4 9 8 -2 4 2 10 8 12 8 4 9
6 2 6 -6 1 -17 -5 -23 -12z"/>
<path d="M6310 604 c0 -17 22 -14 28 4 2 7 -3 12 -12 12 -9 0 -16 -7 -16 -16z"/>
<path d="M6456 595 c-3 -8 -1 -15 4 -15 6 0 10 7 10 15 0 8 -2 15 -4 15 -2 0
-6 -7 -10 -15z"/>
<path d="M6650 590 c0 -27 3 -31 23 -28 16 2 22 10 22 28 0 18 -6 26 -22 28
-20 3 -23 -1 -23 -28z"/>
<path d="M6612 410 c-26 -67 -26 -70 7 -70 34 0 36 7 16 60 l-13 35 -10 -25z"/>
</g>
</svg>
